<svg width="1440" height="9299" viewBox="0 0 1440 9299" fill="none" xmlns="http://www.w3.org/2000/svg">
<path d="M1440 0H0V9299H1440V0Z" fill="white"/>
<path opacity="0.06" d="M203.385 6198.02C-30.9429 6425.19 297.108 6851.48 398.987 6677.73C500.867 6503.98 536.158 6541.09 729.993 6708.67C923.829 6876.26 1032.29 6509.19 1074.54 6379.77C1116.78 6250.35 1325.11 5794.41 1180.6 5487.36C1036.09 5180.32 739.424 4939.3 496.515 5151.6C253.606 5363.9 437.714 5970.85 203.385 6198.02Z" fill="#157791"/>
<path d="M236.8 5981.43C238.748 5980.29 240.969 5979.7 243.225 5979.73V5991.35H240.21C237.468 5991.35 235.412 5991.94 234.042 5993.12C232.672 5994.3 231.987 5996.36 231.986 5999.32V6015.96H221V5980.11H231.986V5986.08C233.206 5984.18 234.854 5982.58 236.8 5981.43Z" fill="#036E8A"/>
<path d="M255.341 6014.22C252.568 6012.76 250.272 6010.53 248.723 6007.8C247.066 6004.82 246.235 6001.45 246.314 5998.03C246.243 5994.63 247.086 5991.27 248.756 5988.3C250.322 5985.56 252.64 5983.32 255.438 5981.84C258.373 5980.32 261.64 5979.55 264.947 5979.6C268.254 5979.55 271.521 5980.32 274.456 5981.84C277.253 5983.32 279.571 5985.56 281.138 5988.3C282.807 5991.27 283.65 5994.63 283.579 5998.03C283.649 6001.44 282.794 6004.81 281.105 6007.77C279.515 6010.52 277.176 6012.76 274.361 6014.22C271.414 6015.75 268.137 6016.52 264.82 6016.47C261.523 6016.53 258.266 6015.75 255.344 6014.22M270.182 6004.65C271.66 6003.11 272.399 6000.9 272.398 5998.03C272.397 5995.17 271.68 5992.96 270.247 5991.42C269.567 5990.69 268.745 5990.11 267.831 5989.71C266.918 5989.31 265.933 5989.11 264.937 5989.1C263.941 5989.1 262.955 5989.3 262.039 5989.69C261.123 5990.09 260.298 5990.66 259.613 5991.38C258.2 5992.91 257.494 5995.12 257.493 5998.03C257.493 6000.9 258.189 6003.11 259.581 6004.65C260.231 6005.4 261.037 6005.99 261.942 6006.39C262.847 6006.79 263.828 6006.99 264.817 6006.96C265.824 6006.98 266.822 6006.78 267.746 6006.38C268.671 6005.98 269.501 6005.39 270.182 6004.65Z" fill="#036E8A"/>
<path d="M340.887 5980.11L331.187 6015.96H319.045L313.389 5992.7L307.545 6015.96H295.463L285.697 5980.11H296.685L301.76 6005.75L307.8 5980.11H319.429L325.531 6005.61L330.545 5980.11H340.887Z" fill="#036E8A"/>
<path d="M231.779 5961.63L229.46 5969.06H228.187L226.396 5963.16L224.606 5969.06H223.331L221 5961.63H222.26L223.967 5967.87L225.811 5961.63H227.072L228.872 5967.88L230.56 5961.63H231.779Z" fill="#036E8A"/>
<path d="M239.739 5965.8H233.801C233.801 5966.12 233.864 5966.43 233.986 5966.72C234.109 5967 234.288 5967.26 234.513 5967.48C234.738 5967.7 235.005 5967.87 235.297 5967.98C235.589 5968.09 235.901 5968.15 236.214 5968.14C236.687 5968.15 237.153 5968.02 237.549 5967.76C237.902 5967.52 238.166 5967.17 238.302 5966.76H239.631C239.442 5967.46 239.021 5968.08 238.438 5968.51C237.791 5968.97 237.009 5969.21 236.214 5969.18C235.553 5969.19 234.9 5969.02 234.322 5968.7C233.767 5968.39 233.313 5967.92 233.014 5967.35C232.687 5966.73 232.524 5966.03 232.539 5965.33C232.524 5964.63 232.683 5963.93 233.001 5963.31C233.292 5962.75 233.743 5962.28 234.296 5961.97C234.884 5961.65 235.545 5961.49 236.214 5961.51C236.867 5961.49 237.513 5961.65 238.086 5961.97C238.615 5962.26 239.05 5962.7 239.34 5963.23C239.639 5963.8 239.79 5964.42 239.78 5965.06C239.78 5965.29 239.766 5965.54 239.74 5965.8M238.193 5963.59C237.991 5963.25 237.697 5962.99 237.346 5962.82C236.977 5962.64 236.571 5962.54 236.16 5962.55C235.572 5962.54 235.001 5962.75 234.567 5963.15C234.111 5963.58 233.841 5964.18 233.814 5964.8H238.501C238.512 5964.38 238.404 5963.96 238.189 5963.59" fill="#036E8A"/>
<path d="M250.233 5961.85C250.688 5962.1 251.057 5962.47 251.294 5962.93C251.566 5963.47 251.698 5964.07 251.68 5964.68V5969.06H250.464V5964.85C250.506 5964.24 250.306 5963.63 249.907 5963.15C249.71 5962.95 249.473 5962.8 249.211 5962.7C248.95 5962.6 248.669 5962.55 248.389 5962.56C248.102 5962.55 247.815 5962.6 247.547 5962.7C247.279 5962.81 247.037 5962.97 246.836 5963.17C246.422 5963.67 246.215 5964.31 246.26 5964.95V5969.06H245.026V5959.02H246.26V5962.69C246.507 5962.3 246.857 5962 247.27 5961.8C247.722 5961.59 248.216 5961.48 248.715 5961.49C249.243 5961.48 249.764 5961.61 250.233 5961.85Z" fill="#036E8A"/>
<path d="M260.442 5965.8H254.505C254.505 5966.12 254.568 5966.43 254.69 5966.72C254.813 5967 254.992 5967.26 255.217 5967.48C255.442 5967.7 255.709 5967.87 256.001 5967.98C256.293 5968.09 256.605 5968.15 256.918 5968.14C257.391 5968.15 257.857 5968.02 258.253 5967.76C258.606 5967.52 258.87 5967.17 259.006 5966.76H260.335C260.146 5967.46 259.725 5968.08 259.142 5968.51C258.495 5968.97 257.713 5969.21 256.918 5969.18C256.257 5969.19 255.604 5969.02 255.026 5968.7C254.471 5968.39 254.017 5967.92 253.718 5967.35C253.391 5966.73 253.228 5966.03 253.243 5965.33C253.228 5964.63 253.387 5963.93 253.705 5963.31C253.996 5962.75 254.447 5962.28 255 5961.97C255.588 5961.65 256.249 5961.49 256.918 5961.51C257.571 5961.49 258.217 5961.65 258.79 5961.97C259.319 5962.26 259.754 5962.7 260.044 5963.23C260.343 5963.8 260.494 5964.42 260.484 5965.06C260.484 5965.29 260.47 5965.54 260.444 5965.8M258.896 5963.59C258.694 5963.25 258.4 5962.99 258.049 5962.82C257.68 5962.64 257.274 5962.54 256.863 5962.55C256.275 5962.54 255.704 5962.75 255.27 5963.15C254.814 5963.58 254.544 5964.18 254.517 5964.8H259.205C259.216 5964.38 259.108 5963.96 258.893 5963.59" fill="#036E8A"/>
<path d="M263.344 5959.02H262.111V5969.06H263.344V5959.02Z" fill="#036E8A"/>
<path d="M267.772 5961.93C268.285 5961.64 268.868 5961.49 269.459 5961.51C270.091 5961.5 270.713 5961.66 271.259 5961.98C271.798 5962.3 272.237 5962.76 272.525 5963.32C272.842 5963.94 273.001 5964.63 272.985 5965.32C272.998 5966.02 272.84 5966.71 272.525 5967.33C272.239 5967.89 271.8 5968.37 271.258 5968.69C270.716 5969.02 270.092 5969.19 269.459 5969.18C268.873 5969.19 268.294 5969.05 267.785 5968.75C267.332 5968.5 266.952 5968.13 266.68 5967.69V5972.58H265.446V5961.63H266.68V5963C266.944 5962.55 267.321 5962.19 267.772 5961.93ZM271.385 5963.85C271.177 5963.45 270.859 5963.12 270.47 5962.9C270.083 5962.68 269.646 5962.57 269.202 5962.58C268.762 5962.57 268.33 5962.69 267.949 5962.91C267.557 5963.14 267.238 5963.47 267.027 5963.87C266.789 5964.32 266.67 5964.82 266.681 5965.33C266.669 5965.84 266.788 5966.35 267.027 5966.8C267.238 5967.2 267.557 5967.54 267.949 5967.76C268.33 5967.98 268.762 5968.1 269.202 5968.1C269.647 5968.1 270.084 5967.99 270.47 5967.76C270.86 5967.54 271.177 5967.2 271.385 5966.8C271.62 5966.34 271.737 5965.83 271.724 5965.32C271.736 5964.81 271.62 5964.3 271.385 5963.85Z" fill="#036E8A"/>
<path d="M280.557 5961.93C281.07 5961.64 281.653 5961.49 282.244 5961.51C282.876 5961.5 283.498 5961.66 284.044 5961.98C284.583 5962.3 285.022 5962.76 285.31 5963.32C285.627 5963.94 285.786 5964.63 285.77 5965.32C285.783 5966.02 285.625 5966.71 285.31 5967.33C285.024 5967.89 284.585 5968.37 284.043 5968.69C283.501 5969.02 282.877 5969.19 282.244 5969.18C281.658 5969.19 281.079 5969.05 280.57 5968.75C280.117 5968.5 279.737 5968.13 279.465 5967.69V5972.58H278.231V5961.63H279.465V5963C279.729 5962.55 280.106 5962.19 280.557 5961.93ZM284.17 5963.85C283.962 5963.45 283.644 5963.12 283.255 5962.9C282.868 5962.68 282.431 5962.57 281.987 5962.58C281.547 5962.57 281.115 5962.69 280.734 5962.91C280.342 5963.14 280.023 5963.47 279.812 5963.87C279.574 5964.32 279.455 5964.82 279.466 5965.33C279.454 5965.84 279.573 5966.35 279.812 5966.8C280.023 5967.2 280.342 5967.54 280.734 5967.76C281.115 5967.98 281.547 5968.1 281.987 5968.1C282.432 5968.1 282.869 5967.99 283.255 5967.76C283.645 5967.54 283.962 5967.2 284.17 5966.8C284.405 5966.34 284.522 5965.83 284.509 5965.32C284.521 5964.81 284.405 5964.3 284.17 5963.85Z" fill="#036E8A"/>
<path d="M294.135 5965.8H288.196C288.196 5966.12 288.259 5966.43 288.381 5966.71C288.504 5967 288.683 5967.26 288.908 5967.48C289.133 5967.7 289.4 5967.87 289.692 5967.98C289.984 5968.09 290.296 5968.15 290.609 5968.14C291.082 5968.15 291.548 5968.02 291.944 5967.76C292.297 5967.52 292.561 5967.17 292.697 5966.76H294.026C293.837 5967.46 293.416 5968.08 292.833 5968.51C292.186 5968.97 291.404 5969.21 290.609 5969.18C289.948 5969.19 289.295 5969.02 288.717 5968.7C288.162 5968.39 287.708 5967.92 287.409 5967.35C287.082 5966.73 286.919 5966.03 286.934 5965.33C286.918 5964.62 287.077 5963.93 287.396 5963.31C287.687 5962.74 288.138 5962.28 288.691 5961.97C289.279 5961.65 289.94 5961.49 290.609 5961.5C291.262 5961.49 291.908 5961.65 292.481 5961.96C293.011 5962.26 293.445 5962.7 293.735 5963.23C294.034 5963.79 294.185 5964.42 294.175 5965.05C294.175 5965.29 294.161 5965.54 294.135 5965.8M292.589 5963.59C292.387 5963.25 292.093 5962.99 291.742 5962.81C291.373 5962.64 290.967 5962.54 290.556 5962.55C289.968 5962.54 289.397 5962.75 288.963 5963.15C288.507 5963.58 288.237 5964.18 288.21 5964.8H292.902C292.913 5964.38 292.805 5963.96 292.59 5963.59" fill="#036E8A"/>
<path d="M297.152 5968.71C296.59 5968.39 296.129 5967.92 295.824 5967.36C295.493 5966.73 295.327 5966.04 295.342 5965.33C295.329 5964.63 295.502 5963.93 295.842 5963.32C296.155 5962.75 296.622 5962.29 297.19 5961.97C297.781 5961.67 298.436 5961.51 299.102 5961.51C299.768 5961.51 300.423 5961.67 301.014 5961.97C301.58 5962.28 302.047 5962.75 302.362 5963.31C302.704 5963.93 302.876 5964.63 302.862 5965.33C302.877 5966.04 302.701 5966.74 302.353 5967.36C302.028 5967.93 301.552 5968.39 300.977 5968.71C300.386 5969.03 299.724 5969.19 299.052 5969.18C298.391 5969.19 297.739 5969.03 297.16 5968.71M300.299 5967.78C300.695 5967.57 301.022 5967.24 301.241 5966.85C301.492 5966.38 301.616 5965.86 301.6 5965.33C301.616 5964.8 301.495 5964.28 301.248 5963.81C301.036 5963.42 300.716 5963.1 300.326 5962.88C299.944 5962.68 299.52 5962.58 299.088 5962.58C298.657 5962.58 298.233 5962.68 297.851 5962.88C297.466 5963.1 297.153 5963.42 296.951 5963.81C296.712 5964.28 296.596 5964.8 296.612 5965.33C296.595 5965.86 296.709 5966.39 296.944 5966.86C297.142 5967.25 297.451 5967.58 297.833 5967.79C298.208 5967.99 298.628 5968.1 299.054 5968.09C299.489 5968.09 299.918 5967.99 300.301 5967.78" fill="#036E8A"/>
<path d="M306.806 5961.93C307.319 5961.64 307.902 5961.49 308.493 5961.51C309.125 5961.5 309.747 5961.66 310.293 5961.98C310.832 5962.3 311.27 5962.76 311.559 5963.32C311.876 5963.94 312.035 5964.63 312.019 5965.32C312.032 5966.02 311.874 5966.71 311.559 5967.33C311.274 5967.89 310.835 5968.37 310.293 5968.7C309.751 5969.02 309.128 5969.19 308.494 5969.18C307.908 5969.2 307.33 5969.05 306.821 5968.76C306.367 5968.5 305.986 5968.14 305.714 5967.69V5972.59H304.482V5961.63H305.716V5963C305.981 5962.55 306.357 5962.19 306.808 5961.93M310.422 5963.85C310.213 5963.45 309.895 5963.13 309.506 5962.9C309.119 5962.68 308.682 5962.57 308.238 5962.58C307.797 5962.57 307.363 5962.69 306.982 5962.91C306.59 5963.14 306.27 5963.47 306.059 5963.87C305.821 5964.32 305.702 5964.82 305.713 5965.33C305.701 5965.84 305.82 5966.35 306.059 5966.8C306.27 5967.2 306.59 5967.54 306.982 5967.76C307.362 5967.99 307.794 5968.1 308.234 5968.1C308.679 5968.1 309.116 5967.99 309.502 5967.76C309.892 5967.54 310.21 5967.2 310.418 5966.8C310.652 5966.34 310.769 5965.83 310.756 5965.32C310.768 5964.81 310.652 5964.3 310.418 5963.85" fill="#036E8A"/>
<path d="M314.88 5959.02H313.647V5969.06H314.88V5959.02Z" fill="#036E8A"/>
<path d="M323.721 5965.8H317.782C317.782 5966.12 317.845 5966.43 317.968 5966.71C318.09 5967 318.269 5967.26 318.494 5967.48C318.719 5967.7 318.986 5967.87 319.278 5967.98C319.57 5968.09 319.882 5968.15 320.195 5968.14C320.668 5968.15 321.134 5968.02 321.53 5967.76C321.883 5967.52 322.147 5967.17 322.283 5966.76H323.612C323.423 5967.46 323.002 5968.08 322.419 5968.51C321.772 5968.97 320.99 5969.21 320.195 5969.18C319.534 5969.19 318.881 5969.02 318.303 5968.7C317.748 5968.39 317.294 5967.92 316.995 5967.35C316.668 5966.73 316.505 5966.03 316.52 5965.33C316.504 5964.62 316.663 5963.93 316.982 5963.31C317.273 5962.74 317.724 5962.28 318.277 5961.97C318.865 5961.65 319.526 5961.49 320.195 5961.5C320.849 5961.49 321.494 5961.65 322.067 5961.96C322.597 5962.26 323.031 5962.7 323.321 5963.23C323.62 5963.79 323.771 5964.42 323.761 5965.05C323.761 5965.29 323.747 5965.54 323.721 5965.8M322.175 5963.58C321.973 5963.25 321.679 5962.98 321.328 5962.81C320.959 5962.63 320.553 5962.54 320.142 5962.55C319.554 5962.53 318.983 5962.75 318.549 5963.15C318.093 5963.58 317.823 5964.17 317.796 5964.8H322.488C322.499 5964.37 322.391 5963.95 322.176 5963.59" fill="#036E8A"/>
<path d="M330.514 5962.64V5967.02C330.5 5967.16 330.514 5967.3 330.553 5967.43C330.593 5967.56 330.658 5967.68 330.745 5967.79C330.974 5967.96 331.26 5968.04 331.545 5968.01H332.453V5969.06H331.342C330.785 5969.1 330.233 5968.93 329.796 5968.58C329.607 5968.37 329.463 5968.13 329.374 5967.86C329.286 5967.59 329.254 5967.31 329.281 5967.02V5962.64H328.318V5961.63H329.281V5959.76H330.515V5961.63H332.453V5962.64H330.514Z" fill="#036E8A"/>
<path d="M335.294 5968.71C334.732 5968.39 334.27 5967.92 333.965 5967.36C333.634 5966.73 333.468 5966.04 333.483 5965.33C333.47 5964.63 333.643 5963.93 333.983 5963.32C334.296 5962.75 334.763 5962.29 335.331 5961.97C335.921 5961.67 336.577 5961.51 337.243 5961.51C337.909 5961.51 338.564 5961.67 339.155 5961.97C339.721 5962.28 340.188 5962.75 340.503 5963.31C340.845 5963.93 341.017 5964.63 341.003 5965.33C341.018 5966.04 340.842 5966.74 340.494 5967.36C340.168 5967.93 339.689 5968.39 339.111 5968.71C338.52 5969.03 337.858 5969.19 337.186 5969.18C336.525 5969.19 335.873 5969.03 335.294 5968.71ZM338.433 5967.78C338.829 5967.57 339.156 5967.24 339.375 5966.85C339.626 5966.38 339.75 5965.86 339.733 5965.33C339.749 5964.8 339.628 5964.28 339.382 5963.81C339.17 5963.42 338.85 5963.1 338.46 5962.88C338.078 5962.68 337.654 5962.58 337.222 5962.58C336.791 5962.58 336.367 5962.68 335.985 5962.88C335.6 5963.1 335.287 5963.42 335.085 5963.81C334.846 5964.28 334.73 5964.8 334.746 5965.33C334.729 5965.86 334.843 5966.39 335.078 5966.86C335.276 5967.25 335.585 5967.58 335.967 5967.79C336.342 5967.99 336.762 5968.1 337.188 5968.09C337.623 5968.09 338.052 5967.99 338.435 5967.78" fill="#036E8A"/>
<path d="M221.446 6025.94C221.639 6025.56 221.932 6025.25 222.292 6025.04C222.657 6024.82 223.074 6024.71 223.498 6024.72C223.873 6024.71 224.243 6024.81 224.573 6024.99C224.886 6025.15 225.148 6025.4 225.332 6025.7V6023.04H226.162V6029.81H225.332V6028.87C225.162 6029.18 224.912 6029.43 224.609 6029.61C224.269 6029.81 223.882 6029.91 223.489 6029.9C223.066 6029.9 222.65 6029.79 222.289 6029.57C221.927 6029.34 221.634 6029.02 221.443 6028.64C221.234 6028.22 221.13 6027.76 221.139 6027.29C221.129 6026.82 221.234 6026.35 221.446 6025.94M225.105 6026.31C224.966 6026.04 224.755 6025.81 224.496 6025.66C224.24 6025.51 223.948 6025.43 223.651 6025.44C223.356 6025.43 223.066 6025.51 222.81 6025.66C222.552 6025.81 222.342 6026.03 222.204 6026.3C222.048 6026.6 221.971 6026.94 221.979 6027.29C221.971 6027.63 222.048 6027.98 222.204 6028.29C222.339 6028.55 222.546 6028.78 222.801 6028.93C223.057 6029.09 223.351 6029.17 223.65 6029.16C223.947 6029.16 224.239 6029.09 224.495 6028.94C224.756 6028.78 224.967 6028.56 225.104 6028.29C225.26 6027.98 225.338 6027.64 225.33 6027.29C225.338 6026.95 225.261 6026.61 225.104 6026.3" fill="#036E8A"/>
<path d="M227.58 6023.82C227.476 6023.71 227.418 6023.57 227.418 6023.41C227.418 6023.26 227.476 6023.12 227.58 6023.01C227.631 6022.96 227.694 6022.92 227.763 6022.89C227.831 6022.86 227.906 6022.84 227.98 6022.85C228.052 6022.85 228.123 6022.86 228.189 6022.89C228.255 6022.92 228.314 6022.96 228.363 6023.01C228.465 6023.12 228.522 6023.27 228.522 6023.41C228.522 6023.56 228.465 6023.71 228.363 6023.82C228.314 6023.87 228.255 6023.91 228.189 6023.94C228.123 6023.97 228.052 6023.98 227.98 6023.98C227.906 6023.98 227.832 6023.97 227.763 6023.94C227.694 6023.91 227.632 6023.87 227.58 6023.82ZM228.38 6029.82H227.553V6024.8H228.376L228.38 6029.82Z" fill="#036E8A"/>
<path d="M232.942 6025C233.243 6025.17 233.492 6025.41 233.661 6025.71V6024.8H234.491V6029.92C234.499 6030.35 234.4 6030.77 234.203 6031.15C234.015 6031.5 233.728 6031.79 233.377 6031.98C232.993 6032.19 232.562 6032.3 232.126 6032.28C231.548 6032.31 230.978 6032.14 230.5 6031.82C230.29 6031.67 230.113 6031.48 229.981 6031.26C229.849 6031.04 229.764 6030.8 229.732 6030.55H230.544C230.635 6030.85 230.834 6031.11 231.104 6031.28C231.409 6031.47 231.765 6031.57 232.125 6031.56C232.329 6031.57 232.533 6031.53 232.723 6031.46C232.913 6031.39 233.086 6031.28 233.232 6031.13C233.381 6030.97 233.496 6030.78 233.57 6030.57C233.644 6030.36 233.675 6030.14 233.661 6029.92V6028.87C233.488 6029.17 233.239 6029.43 232.938 6029.6C232.6 6029.8 232.212 6029.91 231.818 6029.9C231.395 6029.9 230.979 6029.79 230.618 6029.57C230.256 6029.34 229.963 6029.02 229.772 6028.64C229.562 6028.22 229.457 6027.76 229.465 6027.29C229.455 6026.82 229.56 6026.36 229.772 6025.94C229.965 6025.57 230.258 6025.25 230.618 6025.04C230.981 6024.82 231.396 6024.71 231.818 6024.72C232.212 6024.71 232.6 6024.81 232.942 6025M233.435 6026.31C233.296 6026.04 233.085 6025.82 232.826 6025.67C232.569 6025.52 232.279 6025.44 231.984 6025.44C231.688 6025.44 231.398 6025.52 231.141 6025.67C230.883 6025.82 230.673 6026.04 230.535 6026.31C230.379 6026.61 230.302 6026.95 230.31 6027.3C230.302 6027.64 230.379 6027.99 230.535 6028.3C230.67 6028.56 230.877 6028.79 231.132 6028.94C231.388 6029.1 231.682 6029.18 231.981 6029.17C232.278 6029.17 232.57 6029.1 232.826 6028.95C233.087 6028.79 233.298 6028.57 233.435 6028.3C233.591 6027.99 233.669 6027.65 233.661 6027.3C233.669 6026.96 233.592 6026.62 233.435 6026.31" fill="#036E8A"/>
<path d="M235.909 6023.82C235.805 6023.71 235.747 6023.57 235.747 6023.41C235.747 6023.26 235.805 6023.12 235.909 6023.01C235.961 6022.96 236.023 6022.92 236.092 6022.89C236.161 6022.86 236.235 6022.85 236.309 6022.85C236.381 6022.85 236.453 6022.86 236.519 6022.89C236.585 6022.92 236.645 6022.96 236.694 6023.01C236.795 6023.12 236.851 6023.27 236.851 6023.41C236.851 6023.56 236.795 6023.71 236.694 6023.82C236.645 6023.87 236.585 6023.91 236.519 6023.94C236.453 6023.97 236.381 6023.98 236.309 6023.98C236.235 6023.98 236.161 6023.97 236.092 6023.94C236.023 6023.91 235.961 6023.87 235.909 6023.82ZM236.709 6029.82H235.886V6024.8H236.709V6029.82Z" fill="#036E8A"/>
<path d="M239.107 6025.48V6028.44C239.088 6028.63 239.143 6028.81 239.26 6028.96C239.412 6029.08 239.603 6029.13 239.793 6029.11H240.399V6029.81H239.658C239.287 6029.84 238.919 6029.72 238.629 6029.49C238.503 6029.35 238.407 6029.18 238.348 6029C238.288 6028.82 238.267 6028.63 238.285 6028.44V6025.48H237.644V6024.8H238.285V6023.54H239.108V6024.8H240.4V6025.49L239.107 6025.48Z" fill="#036E8A"/>
<path d="M241.393 6025.94C241.586 6025.56 241.879 6025.25 242.239 6025.04C242.602 6024.82 243.017 6024.71 243.439 6024.72C243.834 6024.71 244.225 6024.81 244.568 6025C244.866 6025.17 245.113 6025.42 245.281 6025.71V6024.8H246.111V6029.82H245.281V6028.88C245.108 6029.19 244.856 6029.44 244.553 6029.61C244.212 6029.81 243.823 6029.91 243.429 6029.9C243.008 6029.9 242.594 6029.79 242.236 6029.57C241.876 6029.34 241.585 6029.02 241.395 6028.64C241.185 6028.22 241.08 6027.76 241.088 6027.29C241.078 6026.82 241.183 6026.36 241.395 6025.94M245.054 6026.31C244.915 6026.04 244.704 6025.82 244.445 6025.66C244.188 6025.52 243.898 6025.44 243.602 6025.44C243.307 6025.44 243.017 6025.52 242.76 6025.66C242.502 6025.82 242.292 6026.04 242.154 6026.3C241.998 6026.61 241.921 6026.95 241.929 6027.29C241.921 6027.64 241.998 6027.98 242.154 6028.29C242.289 6028.56 242.496 6028.78 242.751 6028.94C243.007 6029.09 243.301 6029.17 243.6 6029.17C243.897 6029.17 244.189 6029.09 244.445 6028.94C244.706 6028.79 244.917 6028.56 245.054 6028.29C245.21 6027.99 245.288 6027.65 245.28 6027.3C245.288 6026.96 245.211 6026.62 245.054 6026.31" fill="#036E8A"/>
<path d="M248.322 6023.04H247.499V6029.81H248.322V6023.04Z" fill="#036E8A"/>
<path d="M259.118 6024.95C259.423 6025.11 259.671 6025.37 259.831 6025.68C260.016 6026.04 260.106 6026.45 260.094 6026.86V6029.81H259.281V6026.98C259.309 6026.56 259.179 6026.15 258.916 6025.83C258.789 6025.69 258.636 6025.59 258.465 6025.52C258.294 6025.45 258.11 6025.42 257.926 6025.43C257.736 6025.42 257.546 6025.45 257.37 6025.52C257.194 6025.6 257.036 6025.7 256.906 6025.84C256.633 6026.18 256.498 6026.61 256.527 6027.04V6029.81H255.714V6026.98C255.742 6026.56 255.611 6026.15 255.348 6025.83C255.222 6025.69 255.068 6025.59 254.897 6025.52C254.727 6025.45 254.543 6025.42 254.359 6025.43C254.169 6025.42 253.979 6025.45 253.803 6025.52C253.627 6025.6 253.469 6025.7 253.339 6025.84C253.066 6026.18 252.931 6026.61 252.96 6027.04V6029.81H252.133V6024.8H252.956V6025.52C253.115 6025.26 253.341 6025.06 253.611 6024.92C253.892 6024.78 254.204 6024.71 254.519 6024.71C254.905 6024.7 255.285 6024.8 255.619 6024.99C255.941 6025.19 256.192 6025.48 256.334 6025.83C256.463 6025.48 256.705 6025.19 257.02 6025C257.341 6024.81 257.71 6024.71 258.086 6024.71C258.444 6024.7 258.798 6024.79 259.116 6024.95" fill="#036E8A"/>
<path d="M261.439 6025.94C261.632 6025.56 261.925 6025.25 262.285 6025.04C262.648 6024.82 263.063 6024.71 263.485 6024.72C263.88 6024.71 264.271 6024.81 264.614 6025C264.912 6025.17 265.159 6025.42 265.327 6025.71V6024.8H266.157V6029.82H265.327V6028.88C265.154 6029.19 264.902 6029.44 264.599 6029.61C264.258 6029.81 263.869 6029.91 263.475 6029.9C263.054 6029.9 262.64 6029.79 262.282 6029.57C261.922 6029.34 261.631 6029.02 261.441 6028.64C261.231 6028.22 261.126 6027.76 261.134 6027.29C261.124 6026.82 261.229 6026.36 261.441 6025.94M265.1 6026.31C264.961 6026.04 264.75 6025.82 264.491 6025.66C264.234 6025.52 263.944 6025.44 263.649 6025.44C263.353 6025.44 263.063 6025.52 262.806 6025.66C262.548 6025.82 262.338 6026.04 262.2 6026.3C262.044 6026.61 261.967 6026.95 261.975 6027.29C261.967 6027.64 262.044 6027.98 262.2 6028.29C262.335 6028.56 262.542 6028.78 262.797 6028.94C263.053 6029.09 263.347 6029.17 263.646 6029.17C263.943 6029.17 264.235 6029.09 264.491 6028.94C264.752 6028.79 264.963 6028.56 265.1 6028.29C265.256 6027.99 265.334 6027.65 265.326 6027.3C265.334 6026.96 265.257 6026.62 265.1 6026.31" fill="#036E8A"/>
<path d="M268.985 6024.94C269.284 6024.78 269.623 6024.7 269.965 6024.71V6025.57H269.748C268.827 6025.57 268.366 6026.07 268.367 6027.09V6029.81H267.544V6024.8H268.367V6025.61C268.504 6025.33 268.718 6025.1 268.985 6024.94Z" fill="#036E8A"/>
<path d="M273.68 6029.81L271.737 6027.6V6029.81H270.916V6023.04H271.737V6027.02L273.643 6024.8H274.791L272.461 6027.3L274.8 6029.81H273.68Z" fill="#036E8A"/>
<path d="M280.063 6027.62H276.103C276.105 6027.83 276.151 6028.05 276.236 6028.25C276.322 6028.45 276.447 6028.62 276.603 6028.77C276.904 6029.05 277.301 6029.2 277.71 6029.19C278.026 6029.2 278.337 6029.11 278.6 6028.94C278.834 6028.77 279.01 6028.54 279.1 6028.27H279.985C279.859 6028.74 279.577 6029.15 279.185 6029.44C278.756 6029.76 278.235 6029.92 277.704 6029.9C277.263 6029.9 276.828 6029.79 276.444 6029.58C276.073 6029.36 275.77 6029.05 275.572 6028.67C275.354 6028.24 275.246 6027.77 275.256 6027.3C275.246 6026.82 275.351 6026.36 275.563 6025.93C275.757 6025.55 276.057 6025.24 276.426 6025.03C276.817 6024.82 277.258 6024.71 277.705 6024.72C278.141 6024.71 278.57 6024.82 278.951 6025.03C279.305 6025.23 279.595 6025.52 279.787 6025.88C279.987 6026.26 280.088 6026.69 280.081 6027.12C280.081 6027.28 280.072 6027.45 280.055 6027.62M279.025 6026.12C278.891 6025.89 278.696 6025.71 278.463 6025.6C278.217 6025.48 277.946 6025.42 277.672 6025.42C277.28 6025.41 276.899 6025.55 276.61 6025.82C276.306 6026.11 276.127 6026.51 276.11 6026.94H279.235C279.243 6026.65 279.171 6026.37 279.027 6026.12" fill="#036E8A"/>
<path d="M282.172 6025.48V6028.44C282.153 6028.63 282.208 6028.81 282.325 6028.96C282.477 6029.08 282.668 6029.13 282.858 6029.11H283.464V6029.81H282.723C282.352 6029.84 281.984 6029.72 281.694 6029.49C281.568 6029.35 281.472 6029.18 281.413 6029C281.353 6028.82 281.332 6028.63 281.35 6028.44V6025.48H280.709V6024.8H281.35V6023.54H282.173V6024.8H283.465V6025.49L282.172 6025.48Z" fill="#036E8A"/>
<path d="M284.485 6023.82C284.381 6023.71 284.323 6023.57 284.323 6023.41C284.323 6023.26 284.381 6023.12 284.485 6023.01C284.536 6022.96 284.599 6022.92 284.668 6022.89C284.736 6022.86 284.81 6022.84 284.885 6022.85C284.957 6022.85 285.028 6022.86 285.094 6022.89C285.16 6022.92 285.219 6022.96 285.268 6023.01C285.37 6023.12 285.427 6023.27 285.427 6023.41C285.427 6023.56 285.37 6023.71 285.268 6023.82C285.219 6023.87 285.16 6023.91 285.094 6023.94C285.028 6023.97 284.957 6023.98 284.885 6023.98C284.811 6023.98 284.737 6023.97 284.668 6023.94C284.599 6023.91 284.537 6023.87 284.485 6023.82ZM285.285 6029.82H284.462V6024.8H285.285V6029.82Z" fill="#036E8A"/>
<path d="M290.555 6025.26C290.752 6025.47 290.904 6025.73 291 6026C291.096 6026.28 291.135 6026.57 291.115 6026.86V6029.82H290.302V6026.98C290.331 6026.56 290.199 6026.15 289.933 6025.83C289.803 6025.69 289.645 6025.59 289.47 6025.52C289.296 6025.45 289.108 6025.42 288.921 6025.43C288.729 6025.42 288.538 6025.45 288.359 6025.52C288.181 6025.59 288.02 6025.7 287.887 6025.84C287.61 6026.18 287.473 6026.6 287.504 6027.04V6029.81H286.681V6024.8H287.504V6025.51C287.665 6025.25 287.895 6025.05 288.168 6024.91C288.456 6024.77 288.773 6024.7 289.094 6024.71C289.363 6024.69 289.631 6024.74 289.882 6024.83C290.134 6024.93 290.363 6025.07 290.557 6025.26" fill="#036E8A"/>
<path d="M295.629 6025C295.93 6025.17 296.179 6025.41 296.348 6025.71V6024.8H297.178V6029.92C297.186 6030.35 297.087 6030.77 296.89 6031.15C296.701 6031.5 296.414 6031.79 296.064 6031.98C295.68 6032.19 295.249 6032.3 294.813 6032.28C294.235 6032.31 293.665 6032.14 293.187 6031.82C292.977 6031.67 292.8 6031.48 292.668 6031.26C292.535 6031.04 292.45 6030.8 292.418 6030.55H293.231C293.322 6030.85 293.521 6031.11 293.791 6031.28C294.096 6031.47 294.452 6031.57 294.812 6031.56C295.016 6031.57 295.219 6031.53 295.409 6031.46C295.6 6031.39 295.773 6031.27 295.918 6031.13C296.067 6030.97 296.182 6030.78 296.256 6030.57C296.33 6030.36 296.361 6030.14 296.348 6029.92V6028.87C296.175 6029.17 295.926 6029.43 295.625 6029.6C295.286 6029.81 294.898 6029.91 294.504 6029.9C294.081 6029.9 293.665 6029.79 293.304 6029.57C292.942 6029.34 292.65 6029.02 292.459 6028.64C292.249 6028.22 292.143 6027.76 292.152 6027.29C292.141 6026.82 292.247 6026.36 292.459 6025.94C292.652 6025.57 292.944 6025.25 293.304 6025.04C293.667 6024.82 294.082 6024.71 294.504 6024.72C294.898 6024.71 295.287 6024.81 295.629 6025M296.122 6026.31C295.983 6026.04 295.772 6025.82 295.513 6025.67C295.256 6025.52 294.966 6025.44 294.671 6025.44C294.375 6025.44 294.085 6025.52 293.828 6025.67C293.569 6025.82 293.359 6026.04 293.222 6026.31C293.065 6026.61 292.988 6026.95 292.996 6027.3C292.988 6027.64 293.065 6027.99 293.222 6028.3C293.357 6028.56 293.564 6028.79 293.819 6028.94C294.075 6029.1 294.369 6029.18 294.668 6029.17C294.965 6029.17 295.257 6029.1 295.513 6028.95C295.774 6028.79 295.985 6028.57 296.122 6028.3C296.278 6027.99 296.355 6027.65 296.348 6027.3C296.356 6026.96 296.278 6026.62 296.122 6026.31" fill="#036E8A"/>
<path d="M300.981 6025.94C301.173 6025.57 301.466 6025.25 301.826 6025.04C302.189 6024.82 302.604 6024.71 303.026 6024.72C303.421 6024.71 303.812 6024.81 304.155 6025C304.454 6025.17 304.701 6025.42 304.87 6025.71V6024.8H305.7V6029.82H304.87V6028.88C304.696 6029.19 304.445 6029.44 304.142 6029.61C303.801 6029.81 303.412 6029.91 303.018 6029.9C302.595 6029.91 302.179 6029.79 301.819 6029.57C301.459 6029.35 301.168 6029.03 300.978 6028.65C300.768 6028.23 300.662 6027.76 300.671 6027.29C300.66 6026.82 300.766 6026.36 300.978 6025.94M304.637 6026.31C304.498 6026.05 304.287 6025.82 304.028 6025.67C303.771 6025.52 303.481 6025.45 303.186 6025.45C302.89 6025.45 302.6 6025.52 302.343 6025.67C302.084 6025.82 301.874 6026.04 301.737 6026.31C301.58 6026.61 301.503 6026.95 301.511 6027.3C301.503 6027.64 301.58 6027.99 301.737 6028.3C301.872 6028.56 302.079 6028.79 302.334 6028.94C302.59 6029.1 302.884 6029.18 303.183 6029.17C303.48 6029.17 303.772 6029.1 304.028 6028.95C304.289 6028.79 304.5 6028.57 304.637 6028.3C304.793 6027.99 304.87 6027.65 304.863 6027.3C304.871 6026.96 304.793 6026.62 304.637 6026.31" fill="#036E8A"/>
<path d="M310.256 6025C310.557 6025.17 310.806 6025.41 310.975 6025.71V6024.8H311.805V6029.92C311.813 6030.35 311.714 6030.77 311.517 6031.15C311.328 6031.5 311.041 6031.79 310.691 6031.98C310.307 6032.19 309.876 6032.3 309.44 6032.28C308.862 6032.31 308.292 6032.14 307.814 6031.82C307.604 6031.67 307.427 6031.48 307.295 6031.26C307.162 6031.04 307.077 6030.8 307.045 6030.55H307.858C307.949 6030.85 308.148 6031.11 308.418 6031.28C308.723 6031.47 309.079 6031.57 309.439 6031.56C309.643 6031.57 309.846 6031.53 310.036 6031.46C310.226 6031.39 310.4 6031.27 310.545 6031.13C310.694 6030.97 310.809 6030.78 310.883 6030.57C310.957 6030.36 310.988 6030.14 310.975 6029.92V6028.87C310.802 6029.17 310.553 6029.43 310.252 6029.6C309.913 6029.81 309.525 6029.91 309.131 6029.9C308.708 6029.9 308.292 6029.79 307.931 6029.57C307.569 6029.34 307.277 6029.02 307.086 6028.64C306.876 6028.22 306.77 6027.76 306.779 6027.29C306.768 6026.82 306.874 6026.36 307.086 6025.94C307.279 6025.57 307.571 6025.25 307.931 6025.04C308.294 6024.82 308.709 6024.71 309.131 6024.72C309.525 6024.71 309.914 6024.81 310.256 6025M310.749 6026.31C310.61 6026.04 310.399 6025.82 310.14 6025.67C309.883 6025.52 309.593 6025.44 309.297 6025.44C309.002 6025.44 308.712 6025.52 308.455 6025.67C308.196 6025.82 307.986 6026.04 307.849 6026.31C307.692 6026.61 307.615 6026.95 307.623 6027.3C307.615 6027.64 307.692 6027.99 307.849 6028.3C307.984 6028.56 308.191 6028.79 308.446 6028.94C308.702 6029.1 308.996 6029.18 309.295 6029.17C309.592 6029.17 309.884 6029.1 310.14 6028.95C310.401 6028.79 310.612 6028.57 310.749 6028.3C310.905 6027.99 310.982 6027.65 310.975 6027.3C310.983 6026.96 310.905 6026.62 310.749 6026.31" fill="#036E8A"/>
<path d="M317.686 6027.62H313.727C313.729 6027.83 313.775 6028.05 313.86 6028.25C313.946 6028.44 314.071 6028.62 314.227 6028.77C314.528 6029.05 314.925 6029.2 315.334 6029.19C315.65 6029.2 315.961 6029.11 316.224 6028.94C316.459 6028.77 316.634 6028.54 316.724 6028.27H317.61C317.484 6028.74 317.202 6029.15 316.81 6029.44C316.381 6029.76 315.86 6029.92 315.329 6029.9C314.888 6029.9 314.452 6029.79 314.068 6029.58C313.696 6029.36 313.394 6029.05 313.196 6028.67C312.99 6028.24 312.882 6027.77 312.88 6027.3C312.879 6026.83 312.984 6026.36 313.187 6025.93C313.381 6025.55 313.681 6025.24 314.05 6025.03C314.441 6024.82 314.882 6024.71 315.329 6024.72C315.765 6024.71 316.194 6024.82 316.575 6025.03C316.929 6025.23 317.219 6025.52 317.411 6025.88C317.611 6026.26 317.712 6026.69 317.705 6027.12C317.705 6027.27 317.696 6027.44 317.679 6027.62M316.649 6026.12C316.514 6025.89 316.318 6025.71 316.084 6025.59C315.838 6025.47 315.568 6025.41 315.294 6025.42C314.902 6025.41 314.521 6025.55 314.232 6025.82C313.928 6026.11 313.749 6026.51 313.732 6026.93H316.859C316.867 6026.65 316.795 6026.36 316.651 6026.11" fill="#036E8A"/>
<path d="M322.672 6025.26C322.869 6025.47 323.02 6025.73 323.116 6026C323.213 6026.28 323.252 6026.57 323.232 6026.86V6029.82H322.419V6026.98C322.448 6026.56 322.315 6026.15 322.049 6025.83C321.919 6025.69 321.761 6025.59 321.587 6025.52C321.412 6025.45 321.225 6025.42 321.038 6025.43C320.846 6025.42 320.655 6025.45 320.476 6025.52C320.298 6025.59 320.137 6025.7 320.004 6025.84C319.727 6026.17 319.589 6026.6 319.619 6027.04V6029.81H318.796V6024.8H319.617V6025.51C319.778 6025.25 320.008 6025.05 320.281 6024.91C320.569 6024.77 320.887 6024.7 321.208 6024.7C321.477 6024.69 321.745 6024.73 321.996 6024.83C322.248 6024.92 322.477 6025.07 322.671 6025.25" fill="#036E8A"/>
<path d="M324.578 6025.94C324.772 6025.56 325.068 6025.25 325.432 6025.04C325.86 6024.81 326.342 6024.7 326.827 6024.72C327.313 6024.74 327.782 6024.9 328.187 6025.17C328.588 6025.48 328.865 6025.92 328.969 6026.41H328.083C328.008 6026.12 327.834 6025.87 327.59 6025.69C327.324 6025.51 327.006 6025.41 326.683 6025.42C326.469 6025.42 326.256 6025.46 326.059 6025.54C325.862 6025.63 325.687 6025.75 325.545 6025.91C325.233 6026.31 325.079 6026.8 325.111 6027.3C325.079 6027.8 325.233 6028.3 325.545 6028.7C325.686 6028.86 325.861 6028.99 326.058 6029.08C326.255 6029.16 326.468 6029.2 326.683 6029.19C327.003 6029.21 327.318 6029.12 327.583 6028.94C327.83 6028.76 328.007 6028.5 328.083 6028.21H328.969C328.85 6028.7 328.568 6029.13 328.169 6029.44C327.739 6029.76 327.213 6029.92 326.678 6029.9C326.24 6029.91 325.807 6029.8 325.427 6029.58C325.062 6029.37 324.765 6029.05 324.573 6028.67C324.36 6028.25 324.254 6027.78 324.265 6027.3C324.254 6026.83 324.36 6026.36 324.573 6025.94" fill="#036E8A"/>
<path d="M334.327 6024.8L331.346 6032.18H330.496L331.472 6029.76L329.472 6024.8H330.386L331.94 6028.86L333.475 6024.8H334.327Z" fill="#036E8A"/>
</svg>
