<svg width="127" height="31" viewBox="0 0 127 31" fill="none" xmlns="http://www.w3.org/2000/svg">
<path d="M66.42 10.5288V24.0728H62.82V10.5288H58.169V7.1748H71.042V10.5298L66.42 10.5288Z" fill="#036E8A"/>
<path d="M75.192 14.4308V24.0728H71.592V11.0728H79.967V14.4278L75.192 14.4308Z" fill="#036E8A"/>
<mask id="mask0_1_23" style="mask-type:luminance" maskUnits="userSpaceOnUse" x="0" y="0" width="127" height="31">
<path d="M126.804 0.96582H0V30.0328H126.804V0.96582Z" fill="white"/>
</mask>
<g mask="url(#mask0_1_23)">
<path d="M81.205 19.9726C81.1819 19.3868 81.2819 18.8027 81.4987 18.258C81.7154 17.7133 82.0439 17.2201 82.4631 16.8102C82.8823 16.4004 83.3827 16.083 83.9322 15.8786C84.4816 15.6742 85.0679 15.5874 85.653 15.6236C87.592 15.6236 88.561 16.2446 89.107 17.1146V14.2566H82.472V11.0786H92.711V20.6456H94.401V24.0756H89.107V22.8306C88.561 23.7006 87.591 24.3216 85.653 24.3216C85.0679 24.3579 84.4816 24.271 83.9322 24.0666C83.3827 23.8622 82.8823 23.5448 82.4631 23.135C82.0439 22.7252 81.7154 22.2319 81.4987 21.6872C81.2819 21.1425 81.1819 20.5584 81.205 19.9726ZM89.105 19.9726C89.105 19.2026 88.583 18.5306 86.968 18.5306C85.328 18.5306 84.806 19.2016 84.806 19.9726C84.806 20.7436 85.328 21.4146 86.968 21.4146C88.583 21.4146 89.105 20.7436 89.105 19.9726Z" fill="#036E8A"/>
<path d="M108.566 11.0786L104.639 24.0786H99.147L95.195 11.0786H99.047L101.681 20.3486H102.081L104.74 11.0786H108.566Z" fill="#036E8A"/>
<path d="M109.434 17.6117C109.434 13.8587 110.975 10.8267 115.224 10.8267C119.374 10.8267 120.915 13.6597 120.915 17.3377V18.7787H113.161C113.409 20.2447 114.205 20.9657 116.492 20.9657C117.694 20.9746 118.893 20.858 120.07 20.6177V23.9227C118.773 24.2085 117.447 24.3427 116.119 24.3227C110.328 24.3227 109.434 20.2717 109.434 17.6127M117.287 16.3697C117.187 14.8287 116.566 14.1827 115.175 14.1827C113.833 14.1827 113.187 14.8827 113.062 16.3697H117.287Z" fill="#036E8A"/>
<path d="M126.804 6.67676H123.201V24.0728H126.804V6.67676Z" fill="#036E8A"/>
<path d="M30.37 6.66582L14.4 22.6378L7.385 15.6278L18.158 4.85482L14.269 0.96582L0 15.2338L14.8 30.0338L18.3 26.5338L34.269 10.5588L30.37 6.66582Z" fill="#036E8A"/>
<path d="M36.068 0.970703L32.179 4.8547L38.086 10.7617L42.947 15.6227L35.936 22.6337L31.076 17.7737L27.182 21.6737L35.538 30.0307L50.332 15.2337L36.068 0.970703ZM19.962 6.6617L16.068 10.5617L16.268 10.7617L19.261 13.7517L23.161 9.8577L19.962 6.6617Z" fill="#036E8A"/>
</g>
</svg>
