<svg width="20" height="19" viewBox="0 0 20 19" fill="none" xmlns="http://www.w3.org/2000/svg">
<path d="M17.704 6.81092C17.6035 6.74233 17.5253 6.64588 17.4789 6.53342C17.4326 6.42095 17.4201 6.29739 17.443 6.17792C17.4951 5.63139 17.4241 5.08014 17.2353 4.56462C17.0465 4.0491 16.7447 3.58241 16.3519 3.19879C15.9592 2.81516 15.4855 2.52435 14.9657 2.3477C14.4459 2.17105 13.8932 2.11303 13.348 2.17792C13.2569 2.2015 13.1607 2.19573 13.0731 2.16143C12.9855 2.12714 12.9109 2.06607 12.86 1.98692C12.5138 1.54097 12.0699 1.18038 11.5625 0.932886C11.0551 0.685397 10.4976 0.557605 9.93308 0.559344C9.36852 0.561082 8.81189 0.692305 8.306 0.942915C7.80011 1.19353 7.35846 1.55684 7.01501 2.00492C6.90241 2.11012 6.75411 2.16873 6.60001 2.16892C6.27101 2.19192 5.93701 2.14392 5.61101 2.17992C4.68336 2.32008 3.84302 2.80585 3.2586 3.53976C2.67418 4.27367 2.3889 5.20144 2.46001 6.13692C2.48682 6.27344 2.47265 6.41484 2.41926 6.54332C2.36588 6.67179 2.27567 6.78161 2.16001 6.85892C1.77038 7.18517 1.45336 7.58937 1.22935 8.04552C1.00533 8.50166 0.879287 8.99965 0.859319 9.50744C0.83935 10.0152 0.9259 10.5216 1.1134 10.9939C1.3009 11.4662 1.5852 11.8941 1.94801 12.2499C2.30701 12.5979 2.64801 12.8869 2.39701 13.4299C2.45301 13.7609 2.49101 14.0789 2.56201 14.3889C2.78546 15.2516 3.31363 16.0042 4.04892 16.5077C4.78421 17.0112 5.6769 17.2315 6.56201 17.1279C6.65819 17.1072 6.75843 17.1168 6.84889 17.1555C6.93935 17.1942 7.01557 17.26 7.06701 17.3439C7.42017 17.8025 7.87996 18.1679 8.40644 18.4084C8.93292 18.6489 9.51016 18.7572 10.088 18.7239C10.6371 18.7142 11.1766 18.5791 11.6654 18.3288C12.1542 18.0785 12.5792 17.7197 12.908 17.2799C13.0038 17.186 13.131 17.1311 13.265 17.1259C13.7229 17.1197 14.1802 17.09 14.635 17.0369C15.4915 16.8388 16.2479 16.3388 16.7658 15.6284C17.2837 14.9181 17.5283 14.0449 17.455 13.1689C17.4248 13.0395 17.4334 12.904 17.4798 12.7795C17.5263 12.655 17.6084 12.5469 17.716 12.4689C18.1349 12.1256 18.4722 11.6934 18.7033 11.2035C18.9344 10.7136 19.0536 10.1785 19.0521 9.63686C19.0507 9.09523 18.9287 8.56071 18.695 8.07209C18.4613 7.58347 18.1218 7.153 17.701 6.81192M12.251 9.94292C11.513 10.6763 10.7693 11.4066 10.02 12.1339C9.87579 12.3135 9.69311 12.4584 9.48542 12.558C9.27773 12.6576 9.05034 12.7093 8.82001 12.7093C8.58968 12.7093 8.36228 12.6576 8.1546 12.558C7.94691 12.4584 7.76422 12.3135 7.62001 12.1339C7.03101 11.5719 6.46001 10.9899 5.86001 10.4339C5.64001 10.2329 5.66001 10.0989 5.86001 9.91992C6.07186 9.72966 6.27222 9.52697 6.46001 9.31292C6.62501 9.12292 6.75401 9.13692 6.92601 9.30792C7.46301 9.84392 8.02001 10.3589 8.55001 10.8999C8.75001 11.0999 8.86701 11.0939 9.06401 10.8999C10.352 9.62092 11.66 8.35892 12.94 7.08292C13.159 6.86592 13.288 6.84492 13.507 7.08292C13.7715 7.34389 14.0506 7.58962 14.343 7.81892C13.579 8.59792 12.921 9.27692 12.251 9.94492" fill="#FF8000"/>
</svg>
